# This file uses centimeters as units for non-parametric coordinates.

mtllib plaj şemsiyesi.mtl
g default
v 0.309497 0.824540 -0.309497
v 0.000000 0.824540 -0.437695
v -0.309497 0.824540 -0.309497
v -0.437695 0.824540 0.000000
v -0.309497 0.824540 0.309497
v 0.000000 0.824540 0.437695
v 0.309497 0.824540 0.309497
v 0.437695 0.824540 0.000000
v 0.309497 10.669388 -0.309497
v 0.000000 10.669388 -0.437695
v -0.309497 10.669388 -0.309497
v -0.437695 10.669388 0.000000
v -0.309497 10.669388 0.309497
v 0.000000 10.669388 0.437695
v 0.309497 10.669388 0.309497
v 0.437695 10.669388 0.000000
v 0.000000 0.824540 0.000000
v 0.000000 10.669388 0.000000
vt 0.610485 0.045765
vt 0.500000 0.000000
vt 0.389515 0.045765
vt 0.343750 0.156250
vt 0.389515 0.266735
vt 0.500000 0.312500
vt 0.610485 0.266735
vt 0.656250 0.156250
vt 0.375000 0.312500
vt 0.406250 0.312500
vt 0.437500 0.312500
vt 0.468750 0.312500
vt 0.500000 0.312500
vt 0.531250 0.312500
vt 0.562500 0.312500
vt 0.593750 0.312500
vt 0.625000 0.312500
vt 0.375000 0.688440
vt 0.406250 0.688440
vt 0.437500 0.688440
vt 0.468750 0.688440
vt 0.500000 0.688440
vt 0.531250 0.688440
vt 0.562500 0.688440
vt 0.593750 0.688440
vt 0.625000 0.688440
vt 0.610485 0.733265
vt 0.500000 0.687500
vt 0.389515 0.733265
vt 0.343750 0.843750
vt 0.389515 0.954235
vt 0.500000 1.000000
vt 0.610485 0.954235
vt 0.656250 0.843750
vt 0.500000 0.150000
vt 0.500000 0.837500
vn 0.382683 0.000000 -0.923880
vn 0.382683 0.000000 -0.923880
vn 0.382683 0.000000 -0.923880
vn 0.382683 0.000000 -0.923880
vn -0.382683 0.000000 -0.923880
vn -0.382683 0.000000 -0.923880
vn -0.382683 0.000000 -0.923880
vn -0.382683 0.000000 -0.923880
vn -0.923880 0.000000 -0.382683
vn -0.923880 0.000000 -0.382683
vn -0.923880 0.000000 -0.382683
vn -0.923880 0.000000 -0.382683
vn -0.923880 0.000000 0.382683
vn -0.923880 0.000000 0.382683
vn -0.923880 0.000000 0.382683
vn -0.923880 0.000000 0.382683
vn -0.382683 0.000000 0.923880
vn -0.382683 0.000000 0.923880
vn -0.382683 0.000000 0.923880
vn -0.382683 0.000000 0.923880
vn 0.382683 0.000000 0.923880
vn 0.382683 0.000000 0.923880
vn 0.382683 0.000000 0.923880
vn 0.382683 0.000000 0.923880
vn 0.923880 0.000000 0.382683
vn 0.923880 0.000000 0.382683
vn 0.923880 0.000000 0.382683
vn 0.923880 0.000000 0.382683
vn 0.923880 0.000000 -0.382683
vn 0.923880 0.000000 -0.382683
vn 0.923880 0.000000 -0.382683
vn 0.923880 0.000000 -0.382683
vn 0.000000 -1.000000 0.000000
vn 0.000000 -1.000000 0.000000
vn 0.000000 -1.000000 0.000000
vn 0.000000 -1.000000 0.000000
vn 0.000000 -1.000000 0.000000
vn 0.000000 -1.000000 0.000000
vn 0.000000 -1.000000 0.000000
vn 0.000000 -1.000000 0.000000
vn 0.000000 -1.000000 0.000000
vn 0.000000 1.000000 0.000000
vn 0.000000 1.000000 0.000000
vn 0.000000 1.000000 0.000000
vn 0.000000 1.000000 0.000000
vn 0.000000 1.000000 0.000000
vn 0.000000 1.000000 0.000000
vn 0.000000 1.000000 0.000000
vn 0.000000 1.000000 0.000002
vn 0.000000 1.000000 0.000002
s off
g pCylinder1
usemtl initialShadingGroup
f 1/9/1 2/10/2 10/19/3 9/18/4
f 2/10/5 3/11/6 11/20/7 10/19/8
f 3/11/9 4/12/10 12/21/11 11/20/12
f 4/12/13 5/13/14 13/22/15 12/21/16
f 5/13/17 6/14/18 14/23/19 13/22/20
f 6/14/21 7/15/22 15/24/23 14/23/24
f 7/15/25 8/16/26 16/25/27 15/24/28
f 8/16/29 1/17/30 9/26/31 16/25/32
s 1
f 2/2/33 1/1/34 17/35/35
f 3/3/36 2/2/33 17/35/35
f 4/4/37 3/3/36 17/35/35
f 5/5/38 4/4/37 17/35/35
f 6/6/39 5/5/38 17/35/35
f 7/7/40 6/6/39 17/35/35
f 8/8/41 7/7/40 17/35/35
f 1/1/34 8/8/41 17/35/35
s 2
f 9/33/42 10/32/43 18/36/44
f 10/32/43 11/31/45 18/36/44
f 11/31/45 12/30/46 18/36/44
f 12/30/46 13/29/47 18/36/44
f 13/29/47 14/28/48 18/36/44
f 14/28/48 15/27/49 18/36/44
f 15/27/49 16/34/50 18/36/44
f 16/34/50 9/33/42 18/36/44
g default
v 0.000000 0.001455 0.000000
v 0.000000 1.058672 0.000000
v 1.224617 0.794395 -1.224617
v 1.022347 1.058672 -1.022347
v 0.000000 0.794395 -1.731870
v 0.000000 1.058672 -1.445817
v -1.224617 0.794395 -1.224617
v -1.022347 1.058672 -1.022347
v -1.731870 0.794395 0.000000
v -1.445817 1.058672 0.000000
v -1.224617 0.794395 1.224617
v -1.022347 1.058672 1.022347
v 0.000000 0.794395 1.731870
v 0.000000 1.058672 1.445818
v 1.224617 0.794395 1.224617
v 1.022347 1.058672 1.022347
v 1.731870 0.794395 0.000000
v 1.445818 1.058672 0.000000
v 1.072910 0.001455 -1.072910
v 1.224617 0.199670 -1.224617
v 0.000000 0.001455 -1.517323
v 0.000000 0.199670 -1.731870
v -1.072910 0.001455 -1.072910
v -1.224617 0.199670 -1.224617
v -1.517323 0.001455 0.000000
v -1.731870 0.199670 0.000000
v -1.072910 0.001455 1.072910
v -1.224617 0.199670 1.224617
v 0.000000 0.001455 1.517324
v 0.000000 0.199670 1.731870
v 1.072910 0.001455 1.072910
v 1.224617 0.199670 1.224617
v 1.517324 0.001455 0.000000
v 1.731870 0.199670 0.000000
vt 0.625000 0.594464
vt 0.622419 0.688440
vt 0.596331 0.688440
vt 0.377581 0.688440
vt 0.403669 0.688440
vt 0.408831 0.688440
vt 0.434919 0.688440
vt 0.440081 0.688440
vt 0.466169 0.688440
vt 0.471331 0.688440
vt 0.497419 0.688440
vt 0.502581 0.688440
vt 0.528669 0.688440
vt 0.533831 0.688440
vt 0.559919 0.688440
vt 0.565081 0.688440
vt 0.591169 0.688440
vt 0.500000 0.973160
vt 0.407763 0.934954
vt 0.369558 0.842718
vt 0.407763 0.750481
vt 0.500000 0.712275
vt 0.592237 0.750481
vt 0.630442 0.842718
vt 0.592237 0.934954
vt 0.500000 0.837500
vt 0.610485 0.045765
vt 0.500000 0.000000
vt 0.389515 0.045765
vt 0.343750 0.156250
vt 0.389515 0.266735
vt 0.500000 0.312500
vt 0.610485 0.266735
vt 0.656250 0.156250
vt 0.596798 0.058677
vt 0.500000 0.018582
vt 0.403202 0.058677
vt 0.363106 0.155476
vt 0.403202 0.252274
vt 0.500000 0.292369
vt 0.596798 0.252274
vt 0.500000 0.150000
vt 0.636894 0.155476
vt 0.375000 0.382984
vt 0.406250 0.382984
vt 0.375000 0.594464
vt 0.437500 0.382984
vt 0.406250 0.594464
vt 0.468750 0.382984
vt 0.437500 0.594464
vt 0.500000 0.382984
vt 0.468750 0.594464
vt 0.531250 0.382984
vt 0.500000 0.594464
vt 0.562500 0.382984
vt 0.531250 0.594464
vt 0.593750 0.382984
vt 0.562500 0.594464
vt 0.625000 0.382984
vt 0.593750 0.594464
vn 0.653281 0.707107 -0.270598
vn 0.653281 0.707107 -0.270598
vn 0.653281 0.707107 -0.270598
vn 0.653281 0.707107 -0.270598
vn 0.270598 0.707107 -0.653281
vn 0.270598 0.707107 -0.653281
vn 0.270598 0.707107 -0.653281
vn 0.270598 0.707107 -0.653281
vn -0.270598 0.707107 -0.653281
vn -0.270598 0.707107 -0.653281
vn -0.270598 0.707107 -0.653281
vn -0.270598 0.707107 -0.653281
vn -0.653281 0.707107 -0.270598
vn -0.653281 0.707107 -0.270598
vn -0.653281 0.707107 -0.270598
vn -0.653281 0.707107 -0.270598
vn -0.653281 0.707107 0.270598
vn -0.653281 0.707107 0.270598
vn -0.653281 0.707107 0.270598
vn -0.653281 0.707107 0.270598
vn -0.270598 0.707107 0.653281
vn -0.270598 0.707107 0.653281
vn -0.270598 0.707107 0.653281
vn -0.270598 0.707107 0.653281
vn 0.270598 0.707107 0.653281
vn 0.270598 0.707107 0.653281
vn 0.270598 0.707107 0.653281
vn 0.270598 0.707107 0.653281
vn 0.653281 0.707107 0.270598
vn 0.653281 0.707107 0.270598
vn 0.653281 0.707107 0.270598
vn 0.653281 0.707107 0.270598
vn 0.000000 1.000000 0.000000
vn 0.000000 1.000000 0.000000
vn 0.000000 1.000000 -0.000000
vn 0.000000 1.000000 0.000000
vn 0.000000 1.000000 0.000000
vn 0.000000 1.000000 0.000000
vn 0.000000 1.000000 -0.000000
vn 0.000000 1.000000 -0.000000
vn 0.000000 1.000000 0.000000
vn 0.653281 -0.707107 -0.270598
vn 0.653281 -0.707107 -0.270598
vn 0.653281 -0.707107 -0.270598
vn 0.653281 -0.707107 -0.270598
vn 0.270598 -0.707107 -0.653281
vn 0.270598 -0.707107 -0.653281
vn 0.270598 -0.707107 -0.653281
vn 0.270598 -0.707107 -0.653281
vn -0.270598 -0.707107 -0.653281
vn -0.270598 -0.707107 -0.653281
vn -0.270598 -0.707107 -0.653281
vn -0.270598 -0.707107 -0.653281
vn -0.653282 -0.707107 -0.270598
vn -0.653282 -0.707107 -0.270598
vn -0.653282 -0.707107 -0.270598
vn -0.653282 -0.707107 -0.270598
vn -0.653282 -0.707107 0.270598
vn -0.653282 -0.707107 0.270598
vn -0.653282 -0.707107 0.270598
vn -0.653282 -0.707107 0.270598
vn -0.270598 -0.707107 0.653282
vn -0.270598 -0.707107 0.653282
vn -0.270598 -0.707107 0.653282
vn -0.270598 -0.707107 0.653282
vn 0.270598 -0.707107 0.653282
vn 0.270598 -0.707107 0.653282
vn 0.270598 -0.707107 0.653282
vn 0.270598 -0.707107 0.653282
vn 0.653281 -0.707107 0.270598
vn 0.653281 -0.707107 0.270598
vn 0.653281 -0.707107 0.270598
vn 0.653281 -0.707107 0.270598
vn 0.000000 -1.000000 0.000000
vn 0.000000 -1.000000 0.000000
vn 0.000000 -1.000000 0.000000
vn 0.000000 -1.000000 0.000000
vn 0.000000 -1.000000 0.000000
vn 0.000000 -1.000000 0.000000
vn 0.000000 -1.000000 0.000000
vn 0.000000 -1.000000 0.000000
vn 0.000000 -1.000000 0.000000
vn 0.382683 0.000000 -0.923880
vn 0.382683 0.000000 -0.923880
vn 0.382683 0.000000 -0.923880
vn 0.382683 0.000000 -0.923880
vn -0.382683 0.000000 -0.923880
vn -0.382683 0.000000 -0.923880
vn -0.382683 0.000000 -0.923880
vn -0.382683 0.000000 -0.923880
vn -0.923880 0.000000 -0.382683
vn -0.923880 0.000000 -0.382683
vn -0.923880 0.000000 -0.382683
vn -0.923880 0.000000 -0.382683
vn -0.923880 0.000000 0.382683
vn -0.923880 0.000000 0.382683
vn -0.923880 0.000000 0.382683
vn -0.923880 0.000000 0.382683
vn -0.382683 0.000000 0.923880
vn -0.382683 0.000000 0.923880
vn -0.382683 0.000000 0.923880
vn -0.382683 0.000000 0.923880
vn 0.382683 0.000000 0.923880
vn 0.382683 0.000000 0.923880
vn 0.382683 0.000000 0.923880
vn 0.382683 0.000000 0.923880
vn 0.923880 0.000000 0.382683
vn 0.923880 0.000000 0.382683
vn 0.923880 0.000000 0.382683
vn 0.923880 0.000000 0.382683
vn 0.923880 0.000000 -0.382683
vn 0.923880 0.000000 -0.382683
vn 0.923880 0.000000 -0.382683
vn 0.923880 0.000000 -0.382683
s off
g pCylinder2
usemtl initialShadingGroup
f 21/37/51 22/38/52 36/39/53 35/96/54
f 22/40/55 21/82/56 23/84/57 24/41/58
f 24/42/59 23/84/60 25/86/61 26/43/62
f 26/44/63 25/86/64 27/88/65 28/45/66
f 28/46/67 27/88/68 29/90/69 30/47/70
f 30/48/71 29/90/72 31/92/73 32/49/74
f 32/50/75 31/92/76 33/94/77 34/51/78
f 34/52/79 33/94/80 35/96/81 36/53/82
s 1
f 22/61/83 24/54/84 20/62/85
f 24/54/84 26/55/86 20/62/85
f 26/55/86 28/56/87 20/62/85
f 28/56/87 30/57/88 20/62/85
f 30/57/88 32/58/89 20/62/85
f 32/58/89 34/59/90 20/62/85
f 34/59/90 36/60/91 20/62/85
f 36/60/91 22/61/83 20/62/85
s off
f 37/71/92 38/63/93 52/70/94 51/79/95
f 38/63/96 37/71/97 39/72/98 40/64/99
f 40/64/100 39/72/101 41/73/102 42/65/103
f 42/65/104 41/73/105 43/74/106 44/66/107
f 44/66/108 43/74/109 45/75/110 46/67/111
f 46/67/112 45/75/113 47/76/114 48/68/115
f 48/68/116 47/76/117 49/77/118 50/69/119
f 50/69/120 49/77/121 51/79/122 52/70/123
s 2
f 39/72/124 37/71/125 19/78/126
f 41/73/127 39/72/124 19/78/126
f 43/74/128 41/73/127 19/78/126
f 45/75/129 43/74/128 19/78/126
f 47/76/130 45/75/129 19/78/126
f 49/77/131 47/76/130 19/78/126
f 51/79/132 49/77/131 19/78/126
f 37/71/125 51/79/132 19/78/126
s off
f 38/80/133 40/81/134 23/84/135 21/82/136
f 40/81/137 42/83/138 25/86/139 23/84/140
f 42/83/141 44/85/142 27/88/143 25/86/144
f 44/85/145 46/87/146 29/90/147 27/88/148
f 46/87/149 48/89/150 31/92/151 29/90/152
f 48/89/153 50/91/154 33/94/155 31/92/156
f 50/91/157 52/93/158 35/96/159 33/94/160
f 52/93/161 38/95/162 21/37/163 35/96/164
g default
v 5.274614 7.207563 -5.274614
v 0.000000 7.207563 -7.459430
v -5.274614 7.207563 -5.274614
v -7.459430 7.207563 0.000000
v -5.274614 7.207563 5.274614
v 0.000000 7.207563 7.459431
v 5.274614 7.207563 5.274614
v 7.459431 7.207563 0.000000
v 5.094885 8.119216 -5.094885
v 0.000000 8.119216 -7.205256
v -5.094885 8.119216 -5.094885
v -7.205256 8.119216 0.000000
v -5.094885 8.119216 5.094885
v 0.000000 8.119216 7.205257
v 5.094886 8.119216 5.094886
v 7.205257 8.119216 0.000000
v 4.567950 8.968741 -4.567950
v 0.000000 8.968741 -6.460056
v -4.567950 8.968741 -4.567950
v -6.460056 8.968741 0.000000
v -4.567950 8.968741 4.567950
v 0.000000 8.968741 6.460057
v 4.567950 8.968741 4.567950
v 6.460057 8.968741 0.000000
v 3.729715 9.698244 -3.729715
v 0.000000 9.698244 -5.274614
v -3.729715 9.698244 -3.729715
v -5.274614 9.698244 0.000000
v -3.729715 9.698244 3.729715
v 0.000000 9.698244 5.274614
v 3.729715 9.698244 3.729715
v 5.274614 9.698244 0.000000
v 2.637307 10.258012 -2.637307
v 0.000000 10.258012 -3.729715
v -2.637307 10.258012 -2.637307
v -3.729715 10.258012 0.000000
v -2.637307 10.258012 2.637307
v 0.000000 10.258012 3.729715
v 2.637307 10.258012 2.637307
v 3.729715 10.258012 0.000000
v 1.365170 10.609897 -1.365170
v 0.000000 10.609897 -1.930643
v -1.365170 10.609897 -1.365170
v -1.930643 10.609897 0.000000
v -1.365170 10.609897 1.365170
v 0.000000 10.609897 1.930643
v 1.365171 10.609897 1.365171
v 1.930643 10.609897 0.000000
v 0.000000 10.729918 0.000000
vt 0.000000 0.500000
vt 0.125000 0.500000
vt 0.250000 0.500000
vt 0.375000 0.500000
vt 0.500000 0.500000
vt 0.625000 0.500000
vt 0.750000 0.500000
vt 0.875000 0.500000
vt 1.000000 0.500000
vt 0.000000 0.583333
vt 0.125000 0.583333
vt 0.250000 0.583333
vt 0.375000 0.583333
vt 0.500000 0.583333
vt 0.625000 0.583333
vt 0.750000 0.583333
vt 0.875000 0.583333
vt 1.000000 0.583333
vt 0.000000 0.666667
vt 0.125000 0.666667
vt 0.250000 0.666667
vt 0.375000 0.666667
vt 0.500000 0.666667
vt 0.625000 0.666667
vt 0.750000 0.666667
vt 0.875000 0.666667
vt 1.000000 0.666667
vt 0.000000 0.750000
vt 0.125000 0.750000
vt 0.250000 0.750000
vt 0.375000 0.750000
vt 0.500000 0.750000
vt 0.625000 0.750000
vt 0.750000 0.750000
vt 0.875000 0.750000
vt 1.000000 0.750000
vt 0.000000 0.833333
vt 0.125000 0.833333
vt 0.250000 0.833333
vt 0.375000 0.833333
vt 0.500000 0.833333
vt 0.625000 0.833333
vt 0.750000 0.833333
vt 0.875000 0.833333
vt 1.000000 0.833333
vt 0.000000 0.916667
vt 0.125000 0.916667
vt 0.250000 0.916667
vt 0.375000 0.916667
vt 0.500000 0.916667
vt 0.625000 0.916667
vt 0.750000 0.916667
vt 0.875000 0.916667
vt 1.000000 0.916667
vt 0.062500 1.000000
vt 0.187500 1.000000
vt 0.312500 1.000000
vt 0.437500 1.000000
vt 0.562500 1.000000
vt 0.687500 1.000000
vt 0.812500 1.000000
vt 0.937500 1.000000
vn 0.370587 0.249441 -0.894676
vn 0.370587 0.249441 -0.894676
vn 0.370587 0.249441 -0.894676
vn 0.370587 0.249441 -0.894676
vn -0.370587 0.249441 -0.894676
vn -0.370587 0.249441 -0.894676
vn -0.370587 0.249441 -0.894676
vn -0.370587 0.249441 -0.894676
vn -0.894676 0.249441 -0.370587
vn -0.894676 0.249441 -0.370587
vn -0.894676 0.249441 -0.370587
vn -0.894676 0.249441 -0.370587
vn -0.894676 0.249441 0.370587
vn -0.894676 0.249441 0.370587
vn -0.894676 0.249441 0.370587
vn -0.894676 0.249441 0.370587
vn -0.370587 0.249441 0.894676
vn -0.370587 0.249441 0.894676
vn -0.370587 0.249441 0.894676
vn -0.370587 0.249441 0.894676
vn 0.370587 0.249441 0.894676
vn 0.370587 0.249441 0.894676
vn 0.370587 0.249441 0.894676
vn 0.370587 0.249441 0.894676
vn 0.894676 0.249441 0.370587
vn 0.894676 0.249441 0.370587
vn 0.894676 0.249441 0.370587
vn 0.894676 0.249441 0.370587
vn 0.894676 0.249441 -0.370587
vn 0.894676 0.249441 -0.370587
vn 0.894676 0.249441 -0.370587
vn 0.894676 0.249441 -0.370587
vn 0.297308 0.629620 -0.717765
vn 0.297308 0.629620 -0.717765
vn 0.297308 0.629620 -0.717765
vn 0.297308 0.629620 -0.717765
vn -0.297308 0.629620 -0.717765
vn -0.297308 0.629620 -0.717765
vn -0.297308 0.629620 -0.717765
vn -0.297308 0.629620 -0.717765
vn -0.717765 0.629620 -0.297308
vn -0.717765 0.629620 -0.297308
vn -0.717765 0.629620 -0.297308
vn -0.717765 0.629620 -0.297308
vn -0.717765 0.629620 0.297308
vn -0.717765 0.629620 0.297308
vn -0.717765 0.629620 0.297308
vn -0.717765 0.629620 0.297308
vn -0.297308 0.629620 0.717765
vn -0.297308 0.629620 0.717765
vn -0.297308 0.629620 0.717765
vn -0.297308 0.629620 0.717765
vn 0.297308 0.629620 0.717765
vn 0.297308 0.629620 0.717765
vn 0.297308 0.629620 0.717765
vn 0.297308 0.629620 0.717765
vn 0.717765 0.629620 0.297308
vn 0.717765 0.629620 0.297308
vn 0.717765 0.629620 0.297308
vn 0.717765 0.629620 0.297308
vn 0.717765 0.629620 -0.297308
vn 0.717765 0.629620 -0.297308
vn 0.717765 0.629620 -0.297308
vn 0.717765 0.629620 -0.297308
vn 0.212147 0.832273 -0.512168
vn 0.212147 0.832273 -0.512168
vn 0.212147 0.832273 -0.512168
vn 0.212147 0.832273 -0.512168
vn -0.212147 0.832273 -0.512168
vn -0.212147 0.832273 -0.512168
vn -0.212147 0.832272 -0.512168
vn -0.212147 0.832272 -0.512168
vn -0.512168 0.832273 -0.212147
vn -0.512168 0.832273 -0.212147
vn -0.512168 0.832272 -0.212147
vn -0.512168 0.832272 -0.212147
vn -0.512168 0.832272 0.212147
vn -0.512168 0.832272 0.212147
vn -0.512168 0.832273 0.212147
vn -0.512168 0.832273 0.212147
vn -0.212147 0.832273 0.512168
vn -0.212147 0.832273 0.512168
vn -0.212147 0.832272 0.512168
vn -0.212147 0.832272 0.512168
vn 0.212147 0.832273 0.512168
vn 0.212147 0.832273 0.512168
vn 0.212147 0.832273 0.512168
vn 0.212147 0.832273 0.512168
vn 0.512168 0.832273 0.212147
vn 0.512168 0.832273 0.212147
vn 0.512168 0.832273 0.212147
vn 0.512168 0.832273 0.212147
vn 0.512168 0.832273 -0.212147
vn 0.512168 0.832273 -0.212147
vn 0.512168 0.832273 -0.212147
vn 0.512168 0.832273 -0.212147
vn 0.139722 0.930964 -0.337319
vn 0.139722 0.930964 -0.337319
vn 0.139722 0.930964 -0.337319
vn 0.139722 0.930964 -0.337319
vn -0.139722 0.930964 -0.337319
vn -0.139722 0.930964 -0.337319
vn -0.139722 0.930964 -0.337319
vn -0.139722 0.930964 -0.337319
vn -0.337319 0.930964 -0.139722
vn -0.337319 0.930964 -0.139722
vn -0.337319 0.930964 -0.139722
vn -0.337319 0.930964 -0.139722
vn -0.337319 0.930964 0.139722
vn -0.337319 0.930964 0.139722
vn -0.337319 0.930964 0.139722
vn -0.337319 0.930964 0.139722
vn -0.139722 0.930964 0.337319
vn -0.139722 0.930964 0.337319
vn -0.139722 0.930964 0.337319
vn -0.139722 0.930964 0.337319
vn 0.139722 0.930964 0.337319
vn 0.139722 0.930964 0.337319
vn 0.139722 0.930964 0.337319
vn 0.139722 0.930964 0.337319
vn 0.337319 0.930964 0.139722
vn 0.337319 0.930964 0.139722
vn 0.337319 0.930964 0.139722
vn 0.337319 0.930964 0.139722
vn 0.337319 0.930964 -0.139722
vn 0.337319 0.930964 -0.139722
vn 0.337319 0.930964 -0.139722
vn 0.337319 0.930964 -0.139722
vn 0.079260 0.978316 -0.191351
vn 0.079260 0.978316 -0.191351
vn 0.079260 0.978316 -0.191351
vn 0.079260 0.978316 -0.191351
vn -0.079260 0.978316 -0.191351
vn -0.079260 0.978316 -0.191351
vn -0.079260 0.978316 -0.191351
vn -0.079260 0.978316 -0.191351
vn -0.191351 0.978316 -0.079260
vn -0.191351 0.978316 -0.079260
vn -0.191351 0.978316 -0.079260
vn -0.191351 0.978316 -0.079260
vn -0.191351 0.978316 0.079260
vn -0.191351 0.978316 0.079260
vn -0.191351 0.978316 0.079260
vn -0.191351 0.978316 0.079260
vn -0.079260 0.978316 0.191351
vn -0.079260 0.978316 0.191351
vn -0.079260 0.978316 0.191351
vn -0.079260 0.978316 0.191351
vn 0.079260 0.978316 0.191351
vn 0.079260 0.978316 0.191351
vn 0.079260 0.978316 0.191351
vn 0.079260 0.978316 0.191351
vn 0.191351 0.978316 0.079260
vn 0.191351 0.978316 0.079260
vn 0.191351 0.978316 0.079260
vn 0.191351 0.978316 0.079260
vn 0.191351 0.978316 -0.079260
vn 0.191351 0.978316 -0.079260
vn 0.191351 0.978316 -0.079260
vn 0.191351 0.978316 -0.079260
vn 0.025692 0.997744 -0.062026
vn 0.025692 0.997744 -0.062026
vn 0.025692 0.997744 -0.062026
vn -0.025692 0.997744 -0.062026
vn -0.025692 0.997744 -0.062026
vn -0.025692 0.997744 -0.062026
vn -0.062026 0.997744 -0.025692
vn -0.062026 0.997744 -0.025692
vn -0.062026 0.997744 -0.025692
vn -0.062026 0.997744 0.025692
vn -0.062026 0.997744 0.025692
vn -0.062026 0.997744 0.025692
vn -0.025692 0.997744 0.062026
vn -0.025692 0.997744 0.062026
vn -0.025692 0.997744 0.062026
vn 0.025692 0.997744 0.062026
vn 0.025692 0.997744 0.062026
vn 0.025692 0.997744 0.062026
vn 0.062026 0.997744 0.025692
vn 0.062026 0.997744 0.025692
vn 0.062026 0.997744 0.025692
vn 0.062026 0.997744 -0.025693
vn 0.062026 0.997744 -0.025693
vn 0.062026 0.997744 -0.025693
s off
g pSphere1
usemtl initialShadingGroup
f 53/97/165 54/98/166 62/107/167 61/106/168
f 54/98/169 55/99/170 63/108/171 62/107/172
f 55/99/173 56/100/174 64/109/175 63/108/176
f 56/100/177 57/101/178 65/110/179 64/109/180
f 57/101/181 58/102/182 66/111/183 65/110/184
f 58/102/185 59/103/186 67/112/187 66/111/188
f 59/103/189 60/104/190 68/113/191 67/112/192
f 60/104/193 53/105/194 61/114/195 68/113/196
f 61/106/197 62/107/198 70/116/199 69/115/200
f 62/107/201 63/108/202 71/117/203 70/116/204
f 63/108/205 64/109/206 72/118/207 71/117/208
f 64/109/209 65/110/210 73/119/211 72/118/212
f 65/110/213 66/111/214 74/120/215 73/119/216
f 66/111/217 67/112/218 75/121/219 74/120/220
f 67/112/221 68/113/222 76/122/223 75/121/224
f 68/113/225 61/114/226 69/123/227 76/122/228
f 69/115/229 70/116/230 78/125/231 77/124/232
f 70/116/233 71/117/234 79/126/235 78/125/236
f 71/117/237 72/118/238 80/127/239 79/126/240
f 72/118/241 73/119/242 81/128/243 80/127/244
f 73/119/245 74/120/246 82/129/247 81/128/248
f 74/120/249 75/121/250 83/130/251 82/129/252
f 75/121/253 76/122/254 84/131/255 83/130/256
f 76/122/257 69/123/258 77/132/259 84/131/260
f 77/124/261 78/125/262 86/134/263 85/133/264
f 78/125/265 79/126/266 87/135/267 86/134/268
f 79/126/269 80/127/270 88/136/271 87/135/272
f 80/127/273 81/128/274 89/137/275 88/136/276
f 81/128/277 82/129/278 90/138/279 89/137/280
f 82/129/281 83/130/282 91/139/283 90/138/284
f 83/130/285 84/131/286 92/140/287 91/139/288
f 84/131/289 77/132/290 85/141/291 92/140/292
f 85/133/293 86/134/294 94/143/295 93/142/296
f 86/134/297 87/135/298 95/144/299 94/143/300
f 87/135/301 88/136/302 96/145/303 95/144/304
f 88/136/305 89/137/306 97/146/307 96/145/308
f 89/137/309 90/138/310 98/147/311 97/146/312
f 90/138/313 91/139/314 99/148/315 98/147/316
f 91/139/317 92/140/318 100/149/319 99/148/320
f 92/140/321 85/141/322 93/150/323 100/149/324
f 93/142/325 94/143/326 101/151/327
f 94/143/328 95/144/329 101/152/330
f 95/144/331 96/145/332 101/153/333
f 96/145/334 97/146/335 101/154/336
f 97/146/337 98/147/338 101/155/339
f 98/147/340 99/148/341 101/156/342
f 99/148/343 100/149/344 101/157/345
f 100/149/346 93/150/347 101/158/348
